<svg xmlns="http://www.w3.org/2000/svg" viewBox="0 0 702.96 358.88"><defs><style>.cls-1{isolation:isolate;}.cls-2,.cls-5,.cls-6{opacity:0.45;mix-blend-mode:color-burn;}.cls-3,.cls-6{fill:#c246bc;}.cls-4,.cls-5{fill:#00e1f2;}</style></defs><title>Artboard 1</title><g class="cls-1"><g id="Appature"><g id="app" class="cls-2"><path class="cls-3" d="M368,207.39l-29,51.14-47.89-84.79q3.63-.31,7.33-.31A88.69,88.69,0,0,1,368,207.39Z"/><path class="cls-3" d="M312,224.88H217.33c12.35-26,36.64-46.11,65.72-51.27Z"/><path class="cls-3" d="M271.9,233.88l-47.13,85.27A94.76,94.76,0,0,1,214.17,234c0-.1.07-.16.1-.16Z"/><path class="cls-3" d="M306.34,358.11q-3.92.36-7.93.36a88.63,88.63,0,0,1-68.71-32.9l28.49-51.66Z"/><path class="cls-3" d="M379.5,303.88c-12.26,29-36.31,45.84-65.13,51.17l-29.26-51.17Z"/><path class="cls-3" d="M388.25,265.9a95.24,95.24,0,0,1-5.49,32H325.23L372.81,214A94.62,94.62,0,0,1,388.25,265.9Z"/></g></g><g id="C"><g class="cls-2"><path class="cls-4" d="M281.54,329.13l.62.95a179.11,179.11,0,1,1-.62-301.84v31a153.22,153.22,0,1,0,0,240.16Z"/></g></g><g id="rroll"><path class="cls-5" d="M460.43,268.86a45.36,45.36,0,0,1,10.83,1.33l6.36-14a58.8,58.8,0,0,0-17.19-2.59c-42.47,0-77.33,46.09-80.93,104.83l15.1-4.44C399.28,305.86,427,268.86,460.43,268.86Z"/><path class="cls-5" d="M517.93,268.86a45.36,45.36,0,0,1,10.83,1.33l6.36-14a58.8,58.8,0,0,0-17.19-2.59c-42.47,0-77.33,46.09-80.93,104.83l15.1-4.44C456.78,305.86,484.47,268.86,517.93,268.86Z"/><path class="cls-5" d="M567.93,232.44l-4.69,7.75c23.28,4.3,41.05,27.08,41.05,54.55,0,30.54-22,55.29-49,55.29s-49-24.76-49-55.29a62.7,62.7,0,0,1,.52-8l-11.12,2.47c-.15,1.84-.23,3.7-.23,5.58,0,35.2,26.8,63.74,59.86,63.74s59.86-28.54,59.86-63.74C615.12,264.16,594.9,238.62,567.93,232.44Z"/><polygon class="cls-5" points="632.9 21.43 632.9 358.47 652.65 351.1 652.65 12.02 632.9 21.43"/><polygon class="cls-5" points="670.43 21.43 670.43 358.47 690.18 351.1 690.18 12.02 670.43 21.43"/><path class="cls-6" d="M372.5,358.88H343.33a27.43,27.43,0,0,1,20.25-14.7Z"/></g></g></svg>