<svg id="Layer_1" data-name="Layer 1" xmlns="http://www.w3.org/2000/svg" viewBox="0 0 960 560"><defs><style>.cls-1{opacity:0.83;}.cls-2{fill:#c246bc;}</style></defs><title>Artboard 1</title><g id="CS_LOGO_APP" class="cls-1"><path class="cls-2" d="M605.08,174.69l-52.14,92L466.82,114.19q6.53-.56,13.19-.55C530.43,113.64,575.47,137.43,605.08,174.69Z"/><path class="cls-2" d="M504.45,207H334.2c22.2-47,65.89-82.91,118.18-92.18Z"/><path class="cls-2" d="M432.33,223,347.59,376a170,170,0,0,1-29.15-95.66A166.7,166.7,0,0,1,328.52,223c.07-.18.12,0,.19,0Z"/><path class="cls-2" d="M494.26,445.71q-7.06.64-14.26.65c-49.57,0-93.92-23-123.55-59.17l51.23-92.89Z"/><path class="cls-2" d="M625.81,349c-22,51-65.3,82.43-117.12,92l-52.61-92Z"/><path class="cls-2" d="M641.56,280.2c0,20.19-3.48,38.8-9.88,57.8H528.23l85.55-151A169.65,169.65,0,0,1,641.56,280.2Z"/></g></svg>